<?xml version="1.0" encoding="UTF-8" standalone="no"?>
<!-- Created with Inkscape (http://www.inkscape.org/) -->

<svg
   xmlns:dc="http://purl.org/dc/elements/1.1/"
   xmlns:cc="http://creativecommons.org/ns#"
   xmlns:rdf="http://www.w3.org/1999/02/22-rdf-syntax-ns#"
   xmlns:svg="http://www.w3.org/2000/svg"
   xmlns="http://www.w3.org/2000/svg"
   xmlns:sodipodi="http://sodipodi.sourceforge.net/DTD/sodipodi-0.dtd"
   xmlns:inkscape="http://www.inkscape.org/namespaces/inkscape"
   version="1.1"
   id="svg3863"
   preserveAspectRatio="xMinYMax meet"
   width="1.5rem"
   height="1.5rem"
   viewBox="0 0 600 600"
   sodipodi:docname="dc615-bones.svg"
   inkscape:version="0.92.4 (5da689c313, 2019-01-14)">
  
  <metadata
     id="metadata3869">
    <rdf:RDF>
      <cc:Work
         rdf:about="">
        <dc:format>image/svg+xml</dc:format>
        <dc:type
           rdf:resource="http://purl.org/dc/dcmitype/StillImage" />
        <dc:title />
      </cc:Work>
    </rdf:RDF>
  </metadata>
  <defs
     id="defs3867" />
  <g
     id="g3873"
     transform="translate(-39.0666697,-55.442424)">
    <path
       style="fill:#010101"
       d="m 293,545.91597 c -8.52045,-3.86281 -12.67183,-9.91796 -13.82161,-20.16005 -0.85182,-7.58793 -2.64644,-9.104 -7.40442,-6.25518 -2.2783,1.36412 -5.12252,1.9662 -9.35239,1.97977 -5.04081,0.0162 -6.91404,-0.49714 -10.97356,-3.00695 -12.21824,-7.55395 -15.27178,-25.58313 -5.91728,-34.93764 6.30554,-6.30553 16.38865,-7.1157 24.02915,-1.93071 2.0275,1.37589 4.5004,2.36509 5.49535,2.19821 1.09501,-0.18367 10.43666,-12.93333 23.66863,-32.30342 12.02281,-17.6 25.18013,-36.8375 29.2385,-42.75 L 335.34122,398 h 17.82939 c 9.80616,0 17.82939,0.2307 17.82939,0.51266 0,0.46118 -18.96434,28.35243 -56.69847,83.38761 C 306.98569,492.57042 301,502.08011 301,503.03292 c 0,1.10733 1.98741,2.70473 5.50831,4.42734 17.24698,8.43816 18.00827,31.9942 1.26016,38.99201 -4.97058,2.07684 -9.35573,1.9176 -14.76847,-0.5363 z M 521.32474,413.75703 c -5.00119,0.44709 -10.72404,-2.18922 -13.53309,-6.95251 -3.1922,-5.413 -2.82135,-7.45602 -2.07596,-12.94109 0.4086,-3.00682 -0.52894,-2.27371 -1.12746,-2.74629 -1.1258,-0.88889 -64.73175,-1.74034 -196.08823,-2.62491 -41.8,-0.28149 -83.425,-0.73848 -92.5,-1.01553 -9.075,-0.27706 -16.99437,-0.16015 -17.5986,0.25978 -0.60423,0.41994 -1.39958,3.38433 -1.76744,6.58753 -0.79976,6.96416 -3.56759,12.78048 -7.37049,15.48838 -13.54022,9.64149 -32.12854,-0.41581 -33.98331,-18.38684 -0.77875,-7.5454 3.03701,-15.35504 9.29404,-19.0219 2.43419,-1.42653 4.4258,-3.18923 4.4258,-3.91711 0,-0.72788 -1.4625,-2.2286 -3.25,-3.33493 -4.75219,-2.94126 -8.35989,-7.05027 -10.66909,-12.15161 -6.1566,-13.60081 2.81125,-29.04506 16.82637,-28.97804 12.41262,0.0594 22.07981,10.21004 22.55925,23.68752 0.12356,3.47327 0.41652,6.5069 0.65103,6.74141 0.23451,0.23451 10.98071,0.56649 23.88045,0.73774 21.95635,0.29149 23.47694,0.19602 23.8122,-1.49494 0.21721,-1.09557 -1.43603,-3.72441 -4.20159,-6.68102 -23.06247,-24.65565 -31.48438,-63.93513 -20.90261,-97.48901 13.47392,-42.72463 51.40937,-70.49739 96.29399,-70.49739 51.03491,0 93.17071,36.6116 100.36134,87.20351 0.88192,6.20503 1.57492,8.32685 2.79645,8.56209 1.14237,0.22 6.40123,-6.71302 17.73309,-23.37846 C 443.7509,238.38325 451,227.17697 451,226.51058 c 0,-0.6664 -2.2214,-2.59252 -4.93644,-4.28029 -11.15205,-6.93249 -14.94776,-20.92559 -8.60996,-31.74104 5.89742,-10.06392 20.64228,-11.38758 29.92288,-2.6862 4.48459,4.20469 7.60239,11.75865 7.61375,18.44695 0.009,5.05659 0.24804,5.75 1.9856,5.75 1.08671,0 3.44921,-0.89832 5.25,-1.99626 9.36383,-5.70913 23.66604,0.34373 28.75295,12.16858 4.47424,10.40064 1.46997,21.43094 -7.34461,26.96606 -4.71607,2.96146 -14.92786,2.25658 -20.47325,-1.41319 -2.26492,-1.49885 -4.91519,-2.70523 -5.88948,-2.68084 -1.16273,0.0291 -6.48139,6.98747 -15.4782,20.25 C 454.25452,276.40746 438.70281,299.225 427.23389,316 l -20.85258,30.5 -8.17546,0.5 c -7.53245,0.46067 -8.42372,0.74858 -11.33197,3.66055 -6.15003,6.15789 -7.02493,6.02663 45.29881,6.79606 26.03002,0.38278 52.95231,0.54913 59.82731,0.36968 L 504.5,357.5 505.09315,352 c 0.63778,-5.91378 2.56979,-10.48 5.59107,-13.21422 2.76402,-2.50141 8.76485,-4.78578 12.57177,-4.78578 4.65288,0 12.62624,2.98757 15.18604,8.34282 2.02709,4.24079 4.66075,4.74664 4.22362,11.72355 -0.43538,6.94927 -1.00404,7.34464 -4.01503,11.32504 -3.22622,4.26493 -7.74581,3.6004 -11.90062,7.06655 -3.33492,2.78216 -1.64633,3.9457 2.79188,6.95452 10.84905,7.35496 12.64706,14.80856 8.20961,26.97958 -5.79592,5.92591 -9.30957,6.72872 -16.42675,7.36497 z m -188.3953,-59.79176 c 28.46416,-6.82349 51.472,-29.60743 58.1799,-57.61373 2.61223,-10.90638 2.18819,-24.21142 -1.10636,-34.71375 -1.81881,-5.79798 -1.96426,-7.31707 -0.93784,-9.79506 2.42264,-5.84876 -2.04434,-9.89689 -9.31607,-8.44254 C 373.5993,244.63014 367,250.93247 367,255.57555 c 0,2.923 3.04723,5.42445 6.60798,5.42445 2.9452,0 3.41786,0.40116 4.41834,3.75 0.61618,2.0625 1.37057,7.85375 1.67643,12.86944 2.19302,35.96262 -26.36726,66.28662 -62.70275,66.57492 -16.61239,0.13181 -31.57413,-5.45511 -43.16988,-16.12024 l -6.11441,-5.62369 1.64215,-3.17555 c 2.24859,-4.3483 2.07411,-5.78993 -0.99272,-8.2023 -3.33706,-2.62493 -6.60009,-2.62135 -12.04244,0.0132 -4.80221,2.32471 -8.3227,6.55038 -8.3227,9.9898 0,2.98768 2.75007,5.92437 5.54789,5.92437 1.47319,0 5.26454,2.99461 11.09501,8.76342 10.05422,9.94788 19.22281,15.26776 31.51632,18.28668 10.34021,2.53924 25.97437,2.50317 36.77022,-0.0848 z M 278.53871,286.12153 C 286.12291,282.67647 293,272.529 293,264.7832 c 0,-10.74104 -10.61941,-20.76366 -22,-20.76366 -8.72774,0 -19.01515,6.96465 -22.44932,15.19834 -4.1907,10.04755 0.97085,22.95189 10.94932,27.37426 4.39889,1.94955 14.24668,1.70613 19.03871,-0.47061 z m 59.33938,-33.67797 c 13.83802,-4.10945 21.09043,-19.54755 14.81491,-31.53628 -2.81298,-5.37389 -9.88141,-10.40917 -15.86952,-11.30483 -12.00287,-1.79532 -24.9591,7.94262 -27.32141,20.53484 -1.61309,8.59848 5.451,19.55142 14.38396,22.30246 6.0437,1.86125 7.73582,1.86172 13.99206,0.004 z"
       id="path3875"
       sodipodi:nodetypes="ssscscccsscsssscssssscscccsssscsccsscsssscsscsscssssccsscsssccscsssssscscssscssssssccscssssccsssssscccsscc" />
  </g>
</svg>
